<svg id="group-solid-badged" xmlns="http://www.w3.org/2000/svg" width="179" height="179" viewBox="0 0 179 179">
  <path id="Path_379" data-name="Path 379" d="M41.951,16.162H37.625A43.109,43.109,0,0,0,5.653,28.693L4.46,30.085v41.17H24.747V47.885L27.481,44.8l1.243-1.442A54.694,54.694,0,0,1,52.144,29.14,32.717,32.717,0,0,1,41.951,16.163Z" transform="translate(17.716 64.089)" fill="#3c69fe"/>
  <path id="Path_380" data-name="Path 380" d="M69.156,28.662a43.109,43.109,0,0,0-31.971-12.53,52.057,52.057,0,0,0-5.42.3A32.767,32.767,0,0,1,21.82,28.613,54.247,54.247,0,0,1,46.681,43.529l1.243,1.392L50.609,48V71.424H70.2V30.055Z" transform="translate(86.674 63.97)" fill="#3c69fe"/>
  <path id="Path_381" data-name="Path 381" d="M27.356,46.526H28.9A32.071,32.071,0,0,1,44.361,15.25,20.336,20.336,0,1,0,27.356,46.725Z" transform="translate(27.836 24.03)" fill="#3c69fe"/>
  <circle id="Ellipse_2" data-name="Ellipse 2" cx="22.226" cy="22.226" r="22.226" transform="translate(66.628 44.651)" fill="#3c69fe"/>
  <path id="Path_382" data-name="Path 382" d="M47.346,20.336A48.181,48.181,0,0,0,11.993,33.761L10.75,35.153V66.627a7.806,7.806,0,0,0,7.956,7.657H75.836a7.806,7.806,0,0,0,7.956-7.657V35.252L82.6,33.761A47.634,47.634,0,0,0,47.346,20.336Z" transform="translate(42.701 80.6)" fill="#3c69fe"/>
  <path id="Path_383" data-name="Path 383" d="M36.188,39.577a32.52,32.52,0,0,1,0,3.431,20.337,20.337,0,0,0,2.884.249h.945a20.137,20.137,0,0,0,12.53-4.972A37.292,37.292,0,0,1,26.989,6.86a20.535,20.535,0,0,0-5.519,5.668A32.469,32.469,0,0,1,36.188,39.577Z" transform="translate(85.284 27.249)" fill="#3c69fe"/>
  <circle id="Ellipse_3" data-name="Ellipse 3" cx="25" cy="25" r="25" transform="translate(124 5)" fill="#3c69fe"/>
  <path id="Path_384" data-name="Path 384" d="M0,0H179V179H0Z" fill="none"/>
</svg>
